<?xml version="1.0" encoding="UTF-8"?>
<svg id="_레이어_2" data-name="레이어 2" xmlns="http://www.w3.org/2000/svg" viewBox="0 0 648 128">
  <defs>
    <style>
      .cls-1 {
        fill: #fff200;
      }

      .cls-1, .cls-2 {
        stroke-width: 0px;
      }

      .cls-2 {
        fill: #fff;
      }
    </style>
  </defs>
  <g id="NOWHERE">
    <g>
      <path class="cls-1" d="M56.89,83.77h.33V2.33h21.98v118.91h-27.31L22.58,37.97h-.33v83.27H.26V2.33h27.65l28.98,81.44Z"/>
      <path class="cls-1" d="M94.61,36.89c.83-7.6,2.66-14.13,5.5-19.57,2.83-5.44,6.91-9.69,12.24-12.74,5.33-3.05,12.49-4.58,21.48-4.58s16.15,1.53,21.48,4.58c5.33,3.05,9.41,7.3,12.24,12.74,2.83,5.44,4.66,11.97,5.5,19.57.83,7.61,1.25,15.9,1.25,24.9s-.42,17.43-1.25,24.98c-.83,7.55-2.66,14.05-5.5,19.49-2.83,5.44-6.91,9.6-12.24,12.49-5.33,2.89-12.49,4.33-21.48,4.33s-16.15-1.44-21.48-4.33c-5.33-2.89-9.41-7.05-12.24-12.49-2.83-5.44-4.66-11.93-5.5-19.49-.83-7.55-1.25-15.88-1.25-24.98s.42-17.29,1.25-24.9ZM117.92,82.19c.39,5.61,1.17,10.16,2.33,13.66,1.17,3.5,2.83,6.05,5,7.66,2.17,1.61,5.02,2.42,8.58,2.42s6.41-.8,8.58-2.42c2.17-1.61,3.83-4.16,5-7.66,1.17-3.5,1.94-8.05,2.33-13.66.39-5.61.58-12.41.58-20.4s-.2-14.76-.58-20.32c-.39-5.55-1.17-10.1-2.33-13.66-1.17-3.55-2.83-6.13-5-7.74-2.17-1.61-5.02-2.42-8.58-2.42s-6.41.81-8.58,2.42c-2.17,1.61-3.83,4.19-5,7.74-1.17,3.55-1.94,8.11-2.33,13.66-.39,5.55-.58,12.32-.58,20.32s.19,14.8.58,20.4Z"/>
      <path class="cls-1" d="M204.44,2.33l13.16,87.93h.33L231.92,2.33h22.98l13.99,87.93h.33l13.16-87.93h22.98l-21.65,118.91h-26.81l-13.32-86.27h-.33l-13.32,86.27h-26.81L181.46,2.33h22.98Z"/>
      <path class="cls-2" d="M339.01,2.33v45.47h27.98V2.33h23.98v118.91h-23.98v-52.79h-27.98v52.79h-23.98V2.33h23.98Z"/>
      <path class="cls-2" d="M474.07,21.98h-42.47v27.98h39.97v19.65h-39.97v31.98h44.13v19.65h-68.12V2.33h66.45v19.65Z"/>
      <path class="cls-2" d="M532.03,2.33c9.99,0,17.76,2.53,23.32,7.58,5.55,5.05,8.33,12.74,8.33,23.07,0,7.99-1.61,14.52-4.83,19.57-3.22,5.05-8.22,8.3-14.99,9.74v.33c6,.89,10.38,2.83,13.16,5.83,2.77,3,4.5,7.83,5.16,14.49.22,2.22.39,4.64.5,7.24.11,2.61.22,5.52.33,8.74.22,6.33.55,11.16,1,14.49.67,3.33,2.11,5.61,4.33,6.83v1h-25.98c-1.22-1.67-2-3.58-2.33-5.75-.33-2.17-.56-4.41-.67-6.75l-.67-22.82c-.22-4.66-1.39-8.33-3.5-10.99-2.11-2.66-5.66-4-10.66-4h-12.82v50.3h-23.98V2.33h44.3ZM521.7,54.29c5.77,0,10.21-1.36,13.32-4.08,3.11-2.72,4.66-7.3,4.66-13.74,0-10.99-5.55-16.49-16.65-16.49h-11.32v34.31h9.99Z"/>
      <path class="cls-2" d="M646.78,21.98h-42.47v27.98h39.97v19.65h-39.97v31.98h44.13v19.65h-68.12V2.33h66.45v19.65Z"/>
    </g>
  </g>
</svg>