<svg width="33" height="32" viewBox="0 0 33 32" fill="none" xmlns="http://www.w3.org/2000/svg">
<g clip-path="url(#clip0_43_6)">
<path d="M14.2462 17.0602L14.0595 10.2494C14.0595 10.0376 13.8852 9.87573 13.686 9.87573C13.4744 9.87573 13.3125 10.0376 13.3125 10.2494L13.1381 17.0602L13.3125 20.3349C13.3125 20.5466 13.4867 20.7085 13.686 20.7085C13.8976 20.7085 14.0595 20.5466 14.0595 20.3349L14.2462 17.0602Z" fill="url(#paint0_linear_43_6)"/>
<path d="M12.9015 17.0602L12.6899 9.98772C12.6899 9.94193 12.681 9.89657 12.6635 9.85425C12.646 9.81193 12.6203 9.77348 12.5879 9.7411C12.5555 9.70873 12.5171 9.68306 12.4747 9.66558C12.4324 9.6481 12.387 9.63914 12.3413 9.63922C12.2954 9.63912 12.2501 9.64807 12.2077 9.66556C12.1654 9.68304 12.1269 9.70871 12.0945 9.7411C12.0621 9.77349 12.0364 9.81197 12.0189 9.85431C12.0014 9.89665 11.9924 9.94203 11.9925 9.98785L11.8059 17.0478L11.9926 20.3473C11.9925 20.3932 12.0015 20.4385 12.019 20.4809C12.0364 20.5232 12.0621 20.5617 12.0945 20.5941C12.1269 20.6265 12.1654 20.6522 12.2077 20.6697C12.2501 20.6872 12.2954 20.6962 12.3413 20.6961C12.3871 20.6962 12.4325 20.6872 12.4748 20.6698C12.5172 20.6523 12.5557 20.6266 12.5881 20.5942C12.6205 20.5618 12.6462 20.5233 12.6637 20.4809C12.6811 20.4386 12.6901 20.3932 12.69 20.3473L12.9015 17.0602Z" fill="url(#paint1_linear_43_6)"/>
<path d="M10.0004 10.0376C9.98788 9.87577 9.86338 9.73889 9.70163 9.73889C9.53975 9.73889 9.41513 9.86339 9.40275 10.0376L9.191 17.0478L9.40275 20.3971C9.40275 20.559 9.53975 20.6835 9.7015 20.6835C9.86338 20.6835 9.988 20.559 10.0004 20.3848L10.2494 17.0353L10.0004 10.0376Z" fill="url(#paint2_linear_43_6)"/>
<path d="M11.3451 9.80111C11.3451 9.62674 11.1958 9.47736 11.0214 9.47736C10.9788 9.47706 10.9365 9.48523 10.8971 9.5014C10.8577 9.51756 10.8219 9.5414 10.7918 9.57152C10.7617 9.60164 10.7378 9.63745 10.7217 9.67687C10.7055 9.71628 10.6973 9.75851 10.6976 9.80111L10.4985 17.0477L10.6976 20.3722C10.6976 20.5466 10.8471 20.696 11.0214 20.696C11.1958 20.696 11.3326 20.559 11.3451 20.3722L11.5693 17.0477L11.3451 9.80111Z" fill="url(#paint3_linear_43_6)"/>
<path d="M4.55912 20.6088C4.65875 20.6088 4.7335 20.5341 4.74587 20.4221L5.06962 17.0478L4.74587 13.5615C4.73337 13.4618 4.65875 13.3746 4.55912 13.3746C4.4595 13.3746 4.38487 13.4494 4.37237 13.5614L4.086 17.0478L4.37237 20.4221C4.37237 20.5341 4.4595 20.6088 4.55912 20.6088Z" fill="url(#paint4_linear_43_6)"/>
<path d="M15.6035 17.0602L15.4291 8.96685C15.4291 8.82985 15.3545 8.70535 15.2424 8.6306C15.1801 8.59322 15.1055 8.55585 15.0183 8.55585C14.9436 8.55585 14.8689 8.58085 14.7941 8.61822C14.6821 8.69285 14.6074 8.81735 14.6074 8.95435V9.0291L14.458 17.0478L14.6074 20.2976V20.3101C14.6074 20.3971 14.6447 20.4843 14.707 20.5466C14.7817 20.6337 14.8938 20.696 15.0183 20.696C15.1304 20.696 15.23 20.6462 15.3046 20.584C15.3794 20.5092 15.4291 20.4096 15.4291 20.2976L15.4416 19.9738L15.6035 17.0602Z" fill="url(#paint5_linear_43_6)"/>
<path d="M6.04088 13.8104C6.02838 13.6859 5.94125 13.5988 5.82913 13.5988C5.71713 13.5988 5.6175 13.6859 5.6175 13.8104L5.356 17.0479L5.6175 20.447C5.63 20.5715 5.71713 20.6586 5.82913 20.6586C5.94125 20.6586 6.04088 20.5715 6.04088 20.447L6.33963 17.0478L6.04088 13.8104Z" fill="url(#paint6_linear_43_6)"/>
<path d="M7.11163 11.5443C6.98713 11.5443 6.87513 11.6439 6.87513 11.7809L6.62613 17.0478L6.875 20.447C6.8875 20.584 6.987 20.6835 7.1115 20.6835C7.236 20.6835 7.34813 20.584 7.34813 20.447L7.6345 17.0478L7.34813 11.7809C7.34813 11.6564 7.236 11.5443 7.1115 11.5443" fill="url(#paint7_linear_43_6)"/>
<path d="M8.65562 20.447L8.91712 17.0602L8.65562 10.5855C8.64312 10.4361 8.53112 10.324 8.38175 10.324C8.23225 10.324 8.12025 10.4361 8.10775 10.5855L7.87125 17.0602L8.10775 20.447C8.10775 20.5963 8.23225 20.7085 8.38175 20.7085C8.53112 20.721 8.64325 20.5963 8.65562 20.447Z" fill="url(#paint8_linear_43_6)"/>
<path d="M16.5871 7.85876C16.5196 7.81777 16.442 7.79619 16.363 7.79639C16.263 7.79712 16.1662 7.8323 16.0891 7.89601C15.9895 7.97076 15.9273 8.09526 15.9273 8.23226V8.28201L15.7529 17.0726L15.8401 18.6914L15.9273 20.2726C15.9273 20.5093 16.1265 20.696 16.363 20.696C16.5996 20.696 16.7864 20.4968 16.7989 20.2603L16.9856 17.0603L16.7989 8.23226C16.7864 8.07039 16.7116 7.93351 16.5871 7.85876Z" fill="url(#paint9_linear_43_6)"/>
<path d="M0.861125 18.9155C0.923375 18.9155 0.973125 18.8657 0.985625 18.791L1.2595 17.0478L0.985625 15.2797C0.973125 15.205 0.923375 15.1552 0.861125 15.1552C0.828126 15.1552 0.796497 15.1684 0.773163 15.1917C0.749829 15.215 0.736691 15.2467 0.736625 15.2797L0.5 17.0478L0.736625 18.791C0.736625 18.8657 0.798875 18.9155 0.861125 18.9155Z" fill="url(#paint10_linear_43_6)"/>
<path d="M2.044 19.9738C2.10625 19.9738 2.1685 19.924 2.18087 19.8494L2.54212 17.0478L2.18087 14.184C2.16837 14.1093 2.11862 14.0594 2.044 14.0594C1.98175 14.0594 1.9195 14.1093 1.907 14.184L1.59575 17.0478L1.907 19.8494C1.9195 19.924 1.96925 19.9738 2.044 19.9738Z" fill="url(#paint11_linear_43_6)"/>
<path d="M3.28912 20.4844C3.37625 20.4844 3.4385 20.4221 3.451 20.3225L3.78725 17.0478L3.451 13.6485C3.4385 13.5614 3.37625 13.4866 3.28912 13.4866C3.202 13.4866 3.13975 13.5489 3.12725 13.6485L2.8285 17.0478L3.12725 20.3225C3.13975 20.4096 3.202 20.4844 3.28912 20.4844Z" fill="url(#paint12_linear_43_6)"/>
<path d="M28.4533 12.8765C27.9179 12.8765 27.4074 12.9886 26.9343 13.1754C26.623 9.65162 23.6595 6.875 20.0486 6.875C19.1922 6.87565 18.3434 7.0361 17.5459 7.34813C17.2471 7.46025 17.1724 7.58475 17.1724 7.80888V20.2478C17.1724 20.4844 17.3591 20.6711 17.5958 20.696H28.4658C30.6323 20.696 32.388 18.9653 32.388 16.7987C32.3755 14.6322 30.6199 12.8765 28.4533 12.8765Z" fill="url(#paint13_linear_43_6)"/>
<path d="M3.62525 23.0617C3.16462 22.9497 3.04012 22.8998 3.04012 22.7131C3.04012 22.5886 3.13975 22.4516 3.451 22.4516C3.7125 22.4516 3.92412 22.5637 4.111 22.7503L4.53425 22.3396C4.26025 22.0532 3.92412 21.8788 3.47587 21.8788C2.90312 21.8788 2.44237 22.2026 2.44237 22.7256C2.44237 23.2983 2.816 23.4726 3.35137 23.5847C3.89925 23.7092 3.99887 23.7963 3.99887 23.9831C3.99887 24.2072 3.837 24.2943 3.48837 24.2943C3.21437 24.2943 2.95287 24.1948 2.74125 23.9582L2.31787 24.3317C2.542 24.6555 2.96537 24.8547 3.4385 24.8547C4.23537 24.8547 4.57162 24.4812 4.57162 23.9333C4.5965 23.3232 4.08587 23.1613 3.62525 23.0617ZM6.3025 21.8913C5.50562 21.8913 5.04487 22.5013 5.04487 23.3855C5.04487 24.2695 5.518 24.8796 6.30237 24.8796C7.08687 24.8796 7.56 24.2696 7.56 23.3855C7.56 22.5015 7.08687 21.8913 6.3025 21.8913ZM6.3025 24.2945C5.82925 24.2945 5.6425 23.896 5.6425 23.373C5.6425 22.8501 5.84175 22.4517 6.3025 22.4517C6.77562 22.4517 6.9625 22.8501 6.9625 23.373C6.9625 23.896 6.76312 24.2945 6.3025 24.2945ZM9.90087 23.5598C9.90087 24.0205 9.67675 24.3068 9.30325 24.3068C8.92975 24.3068 8.70562 24.0081 8.70562 23.5473V21.9286H8.12037V23.5598C8.12037 24.4065 8.5935 24.8796 9.29075 24.8796C10.0254 24.8796 10.4612 24.3941 10.4612 23.5598V21.9411H9.876V23.5598H9.90087ZM12.9764 23.1613C12.9764 23.3232 12.9889 23.6843 12.9889 23.7963C12.9514 23.7217 12.8519 23.5722 12.7896 23.4726L11.7561 21.9411H11.1959V24.8423H11.7686V23.5598C11.7686 23.398 11.7561 23.0368 11.7561 22.9248C11.7936 22.9995 11.8931 23.1488 11.9554 23.2486L13.0137 24.8298H13.5367V21.9286H12.9637V23.1613H12.9764ZM15.2051 21.9287H14.2962V24.8298H15.1554C15.9025 24.8298 16.6371 24.3941 16.6371 23.3855C16.6371 22.3147 16.027 21.9287 15.2051 21.9287ZM15.1554 24.2695H14.869V22.5015H15.1802C15.7904 22.5015 16.0519 22.8002 16.0519 23.3855C16.0519 23.9085 15.7655 24.2695 15.1554 24.2695ZM18.4301 22.4641C18.6916 22.4641 18.8534 22.5761 18.9655 22.7753L19.5009 22.5263C19.3141 22.1528 18.9904 21.8788 18.4425 21.8788C17.683 21.8788 17.16 22.489 17.16 23.373C17.16 24.282 17.6705 24.8672 18.43 24.8672C18.953 24.8672 19.3016 24.6182 19.5009 24.2072L19.0152 23.921C18.8659 24.1823 18.704 24.2945 18.4425 24.2945C18.0067 24.2945 17.7577 23.896 17.7577 23.373C17.7577 22.8376 18.0067 22.4641 18.4301 22.4641ZM20.5841 21.9287H19.999V24.8298H21.7421V24.2571H20.5841V21.9287ZM23.2736 21.8912C22.4767 21.8912 22.0161 22.5015 22.0161 23.3855C22.0161 24.2695 22.4892 24.8796 23.2736 24.8796C24.0705 24.8796 24.5312 24.2696 24.5312 23.3855C24.5312 22.5015 24.0705 21.8913 23.2737 21.8913M23.2737 24.2946C22.8006 24.2946 22.6137 23.8961 22.6137 23.3731C22.6137 22.8502 22.8131 22.4518 23.2737 22.4518C23.747 22.4518 23.9337 22.8502 23.9337 23.3731C23.9337 23.8961 23.747 24.2946 23.2737 24.2946ZM26.8722 23.56C26.8722 24.0206 26.6481 24.307 26.2746 24.307C25.901 24.307 25.6769 24.0082 25.6769 23.5475V21.9287H25.0917V23.56C25.0917 24.4066 25.5649 24.8797 26.2621 24.8797C26.9967 24.8797 27.4325 24.3942 27.4325 23.56V21.9412H26.8474V23.56H26.8722ZM29.0885 21.9287H28.1796V24.83H29.0387C29.7859 24.83 30.5205 24.3942 30.5205 23.3856C30.5205 22.3148 29.9104 21.9288 29.0886 21.9288M29.0389 24.2697H28.765V22.5017H29.0762C29.6862 22.5017 29.9354 22.8005 29.9354 23.3857C29.9354 23.9087 29.6491 24.2697 29.0389 24.2697Z" fill="#F04923"/>
</g>
<defs>
<linearGradient id="paint0_linear_43_6" x1="68.233" y1="-290.202" x2="68.233" y2="1094.06" gradientUnits="userSpaceOnUse">
<stop stop-color="#F6871F"/>
<stop offset="0.2393" stop-color="#F57E20"/>
<stop offset="0.6262" stop-color="#F36621"/>
<stop offset="1" stop-color="#F04923"/>
</linearGradient>
<linearGradient id="paint1_linear_43_6" x1="66.815" y1="-266.783" x2="66.815" y2="1117.48" gradientUnits="userSpaceOnUse">
<stop stop-color="#F6871F"/>
<stop offset="0.2393" stop-color="#F57E20"/>
<stop offset="0.6262" stop-color="#F36621"/>
<stop offset="1" stop-color="#F04923"/>
</linearGradient>
<linearGradient id="paint2_linear_43_6" x1="62.1426" y1="-276.638" x2="62.1426" y2="1107.61" gradientUnits="userSpaceOnUse">
<stop stop-color="#F6871F"/>
<stop offset="0.2393" stop-color="#F57E20"/>
<stop offset="0.6262" stop-color="#F36621"/>
<stop offset="1" stop-color="#F04923"/>
</linearGradient>
<linearGradient id="paint3_linear_43_6" x1="63.9675" y1="-250.75" x2="63.9675" y2="1133.51" gradientUnits="userSpaceOnUse">
<stop stop-color="#F6871F"/>
<stop offset="0.2393" stop-color="#F57E20"/>
<stop offset="0.6262" stop-color="#F36621"/>
<stop offset="1" stop-color="#F04923"/>
</linearGradient>
<linearGradient id="paint4_linear_43_6" x1="52.8" y1="-636.587" x2="52.8" y2="747.68" gradientUnits="userSpaceOnUse">
<stop stop-color="#F6871F"/>
<stop offset="0.2393" stop-color="#F57E20"/>
<stop offset="0.6262" stop-color="#F36621"/>
<stop offset="1" stop-color="#F04923"/>
</linearGradient>
<linearGradient id="paint5_linear_43_6" x1="71.906" y1="-159.536" x2="71.906" y2="1224.74" gradientUnits="userSpaceOnUse">
<stop stop-color="#F6871F"/>
<stop offset="0.2393" stop-color="#F57E20"/>
<stop offset="0.6262" stop-color="#F36621"/>
<stop offset="1" stop-color="#F04923"/>
</linearGradient>
<linearGradient id="paint6_linear_43_6" x1="54.2018" y1="-658.77" x2="54.2018" y2="725.488" gradientUnits="userSpaceOnUse">
<stop stop-color="#F6871F"/>
<stop offset="0.2393" stop-color="#F57E20"/>
<stop offset="0.6262" stop-color="#F36621"/>
<stop offset="1" stop-color="#F04923"/>
</linearGradient>
<linearGradient id="paint7_linear_43_6" x1="56.6375" y1="-455.38" x2="56.6375" y2="928.878" gradientUnits="userSpaceOnUse">
<stop stop-color="#F6871F"/>
<stop offset="0.2393" stop-color="#F57E20"/>
<stop offset="0.6262" stop-color="#F36621"/>
<stop offset="1" stop-color="#F04923"/>
</linearGradient>
<linearGradient id="paint8_linear_43_6" x1="60.598" y1="-334.584" x2="60.598" y2="1049.69" gradientUnits="userSpaceOnUse">
<stop stop-color="#F6871F"/>
<stop offset="0.2393" stop-color="#F57E20"/>
<stop offset="0.6262" stop-color="#F36621"/>
<stop offset="1" stop-color="#F04923"/>
</linearGradient>
<linearGradient id="paint9_linear_43_6" x1="77.4322" y1="-84.3456" x2="77.4322" y2="1299.93" gradientUnits="userSpaceOnUse">
<stop stop-color="#F6871F"/>
<stop offset="0.2393" stop-color="#F57E20"/>
<stop offset="0.6262" stop-color="#F36621"/>
<stop offset="1" stop-color="#F04923"/>
</linearGradient>
<linearGradient id="paint10_linear_43_6" x1="38.7218" y1="-812.876" x2="38.7218" y2="571.416" gradientUnits="userSpaceOnUse">
<stop stop-color="#F6871F"/>
<stop offset="0.2393" stop-color="#F57E20"/>
<stop offset="0.6262" stop-color="#F36621"/>
<stop offset="1" stop-color="#F04923"/>
</linearGradient>
<linearGradient id="paint11_linear_43_6" x1="48.1186" y1="-704.399" x2="48.1186" y2="679.89" gradientUnits="userSpaceOnUse">
<stop stop-color="#F6871F"/>
<stop offset="0.2393" stop-color="#F57E20"/>
<stop offset="0.6262" stop-color="#F36621"/>
<stop offset="1" stop-color="#F04923"/>
</linearGradient>
<linearGradient id="paint12_linear_43_6" x1="51.1706" y1="-647.689" x2="51.1706" y2="736.592" gradientUnits="userSpaceOnUse">
<stop stop-color="#F6871F"/>
<stop offset="0.2393" stop-color="#F57E20"/>
<stop offset="0.6262" stop-color="#F36621"/>
<stop offset="1" stop-color="#F04923"/>
</linearGradient>
<linearGradient id="paint13_linear_43_6" x1="776.904" y1="6.875" x2="776.904" y2="1389.21" gradientUnits="userSpaceOnUse">
<stop stop-color="#F6871F"/>
<stop offset="0.2402" stop-color="#F57E20"/>
<stop offset="0.6306" stop-color="#F36621"/>
<stop offset="1" stop-color="#F04923"/>
</linearGradient>
<clipPath id="clip0_43_6">
<rect width="32" height="32" fill="white" transform="translate(0.5)"/>
</clipPath>
</defs>
</svg>
